<svg width="54" height="32" viewBox="0 0 54 32" fill="none" xmlns="http://www.w3.org/2000/svg">
<path d="M48.3577 27.0377C47.1045 26.9238 42.216 26.9376 41.3046 26.0815C40.6556 25.474 39.6475 24.9286 38.7879 24.8008C38.4496 24.7525 38.0975 24.7111 37.7384 24.6766C32.9605 24.214 26.6704 25.0563 22.7417 24.6282C22.3585 24.5868 21.996 24.5074 21.6439 24.4039C18.813 23.5029 18.0087 19.9749 15.3677 16.409C12.1985 12.1286 8.88084 9.87786 7.60694 9.01831C4.87619 7.16804 4.77262 7.82047 4.91417 8.26923C5.03845 8.65585 6.47114 10.6546 7.26862 11.7109C5.81866 10.7409 4.33418 9.81917 2.91184 9.06664C2.19032 10.2231 1.58617 11.4623 1.12011 12.7706C5.18344 16.882 7.65182 22.5743 0.875 25.008C1.62414 27.4036 2.82554 29.5922 4.38597 31.4874C4.88655 32.0604 5.20416 31.9948 5.20416 31.9948C8.01086 31.653 11.0005 30.4552 13.4896 29.8442C17.5357 28.8569 21.6577 27.59 25.9075 27.666C29.1802 27.7281 32.6843 28.4151 36.071 28.636C37.2275 28.7085 38.3702 28.7361 39.4887 28.6567C41.1596 28.5463 47.1873 28.2459 48.8582 28.1527C49.2656 28.1286 52.4313 28.1769 52.3381 28.0319C51.734 27.1482 49.2621 27.1137 48.3611 27.0274" fill="#941635"/>
<path d="M49.1725 27.5464C47.9158 27.4256 43.0343 27.4497 42.1194 26.5902C41.4704 25.9757 40.4589 25.4407 39.5993 25.3095C39.261 25.2612 38.9088 25.2163 38.5498 25.1852C33.7684 24.7261 27.4783 25.5684 23.5531 25.1369C23.1699 25.0955 22.8039 25.0161 22.4518 24.9125C19.6175 24.0116 18.82 20.4836 16.1756 16.9212C13.0064 12.6441 9.69219 10.39 8.41485 9.52698C5.6841 7.68017 5.58053 8.33259 5.72553 8.78135C5.84636 9.16798 7.2825 11.1943 8.07998 12.2506C6.63002 11.2841 4.33081 9.8204 2.90847 9.06787C2.18349 10.2243 1.57934 11.467 1.11328 12.7719C5.18007 16.8797 8.46318 23.0864 1.68636 25.5201C2.4355 27.9123 3.64035 30.1078 5.20078 31.9995C8.28712 31.6819 11.5392 31.0364 14.2975 30.3598C18.3436 29.3691 22.4656 28.1022 26.7188 28.1816C29.9881 28.2437 33.4922 28.9272 36.8789 29.1516C38.0389 29.2275 39.1816 29.2482 40.2966 29.1757C41.9641 29.0618 47.9987 28.765 49.6696 28.6718C50.0735 28.6476 53.2461 28.6925 53.1495 28.5509C52.5419 27.6707 50.07 27.6293 49.1725 27.5464Z" fill="#CD181D"/>
<path fill-rule="evenodd" clip-rule="evenodd" d="M7.26693 11.7126C6.466 10.6563 5.03676 8.66106 4.91248 8.27098C4.77093 7.81877 4.87796 7.1698 7.6018 9.02007C8.87915 9.87961 12.1933 12.1338 15.366 16.4108C18.007 19.9767 18.8114 23.5012 21.6422 24.4056C21.9944 24.5092 22.3568 24.5886 22.74 24.63C26.6687 25.058 32.9553 24.2192 37.7367 24.6783C38.2408 22.9558 38.5101 21.1366 38.5101 19.2552C38.5066 8.61963 29.8863 0 19.2532 0C12.359 0 6.3141 3.6246 2.91016 9.07185C4.32904 9.82093 5.81352 10.7461 7.26693 11.7126Z" fill="#FCD504"/>
<path fill-rule="evenodd" clip-rule="evenodd" d="M1.11854 12.7734C0.39356 14.7998 0 16.978 0 19.2563C0 21.2584 0.303801 23.1916 0.873427 25.0108C7.65025 22.5806 5.18187 16.8848 1.11854 12.7734Z" fill="#FCD400"/>
<path d="M16.8898 15.2387C19.7794 18.9323 20.7184 22.6363 23.7357 23.5165C23.9981 23.5856 24.2673 23.6374 24.547 23.6753C22.4066 22.4085 21.4227 19.3327 19.0199 16.257C15.7402 12.0628 12.3708 9.89151 11.0762 9.06303C10.075 8.42787 9.42944 8.10338 9.01172 7.96875C10.6343 9.02851 13.8 11.2792 16.8898 15.2387Z" fill="white"/>
</svg>
