<svg width="13" height="13" viewBox="0 0 13 13" fill="none" xmlns="http://www.w3.org/2000/svg">
<g clip-path="url(#clip0_43_1310)">
<path d="M12.9609 3.8201C12.9293 3.1282 12.8194 2.6557 12.6587 2.24231C12.4956 1.80859 12.2397 1.41573 11.909 1.091C11.5844 0.76033 11.1914 0.504341 10.7577 0.341087C10.3442 0.180511 9.8718 0.0707169 9.1799 0.0392761C8.48672 0.00753784 8.26524 0 6.5 0C4.73476 0 4.51328 0.00753784 3.8201 0.0390778C3.1282 0.0707169 2.6558 0.180611 2.24231 0.341286C1.80859 0.50444 1.41573 0.76033 1.091 1.091C0.76033 1.41563 0.504341 1.80849 0.341087 2.24221C0.180511 2.6557 0.0707169 3.1282 0.0392761 3.82C0.00753784 4.51328 0 4.73466 0 6.4999C0 8.26524 0.00753784 8.48672 0.0392761 9.1799C0.070816 9.8717 0.18071 10.3442 0.341385 10.7577C0.504539 11.1913 0.760429 11.5843 1.0911 11.9089C1.41573 12.2396 1.80869 12.4955 2.24241 12.6586C2.6558 12.8194 3.1283 12.9292 3.8202 12.9608C4.51348 12.9925 4.73486 12.9999 6.5001 12.9999C8.26534 12.9999 8.48682 12.9925 9.18 12.9608C9.87189 12.9292 10.3443 12.8194 10.7578 12.6586C11.6309 12.321 12.3211 11.6308 12.6587 10.7577C12.8195 10.3442 12.9293 9.8717 12.9609 9.1799C12.9925 8.48662 13 8.26524 13 6.5C13 4.73466 12.9925 4.51328 12.9609 3.8201ZM11.7909 9.12664C11.762 9.76042 11.6561 10.1046 11.5671 10.3336C11.3484 10.9005 10.9004 11.3485 10.3335 11.5672C10.1045 11.6562 9.76031 11.7621 9.12654 11.791C8.44129 11.8223 8.23569 11.8289 6.5 11.8289C4.76421 11.8289 4.55871 11.8223 3.87336 11.791C3.23969 11.7621 2.89552 11.6562 2.66641 11.5672C2.38414 11.463 2.12875 11.2968 1.91908 11.0809C1.70316 10.8713 1.53703 10.616 1.43279 10.3336C1.34382 10.1046 1.23789 9.76042 1.20903 9.12664C1.17779 8.44129 1.17114 8.23569 1.17114 6.5001C1.17114 4.76441 1.17779 4.55891 1.20903 3.87346C1.23799 3.23969 1.34382 2.89552 1.43279 2.66651C1.53703 2.38414 1.70325 2.12875 1.91908 1.91908C2.12875 1.70316 2.38414 1.53703 2.66651 1.43288C2.89552 1.34382 3.23969 1.23799 3.87346 1.20903C4.55881 1.17779 4.76441 1.17114 6.5 1.17114H6.4999C8.23549 1.17114 8.44109 1.17779 9.12654 1.20913C9.76031 1.23799 10.1044 1.34392 10.3335 1.43288C10.6158 1.53712 10.8712 1.70325 11.0808 1.91908C11.2967 2.12875 11.4629 2.38414 11.567 2.66651C11.6561 2.89552 11.762 3.23969 11.7909 3.87346C11.8221 4.55881 11.8288 4.76441 11.8288 6.5C11.8288 8.23569 11.8222 8.44119 11.7909 9.12664Z" fill="#080808"/>
<path d="M6.50184 3.16406C4.65844 3.16406 3.16406 4.65854 3.16406 6.50194C3.16406 8.34534 4.65844 9.83971 6.50184 9.83971C8.34534 9.83971 9.83971 8.34534 9.83971 6.50194C9.83971 4.65854 8.34534 3.16406 6.50184 3.16406ZM6.50184 8.66857C5.30531 8.66847 4.3352 7.69847 4.3353 6.50184C4.3353 5.3053 5.30531 4.3352 6.50194 4.3352C7.69857 4.3353 8.66857 5.3053 8.66857 6.50184C8.66857 7.69847 7.69847 8.66857 6.50184 8.66857Z" fill="#080808"/>
<path d="M10.7514 3.03007C10.7514 3.46082 10.4022 3.81004 9.97147 3.81004C9.54063 3.81004 9.19141 3.46082 9.19141 3.03007C9.19141 2.59922 9.54063 2.25 9.97147 2.25C10.4022 2.25 10.7514 2.59922 10.7514 3.03007Z" fill="#080808"/>
</g>
<defs>
<clipPath id="clip0_43_1310">
<rect width="13" height="13" fill="white"/>
</clipPath>
</defs>
</svg>
